<svg id="Groupe_139" data-name="Groupe 139" xmlns="http://www.w3.org/2000/svg" xmlns:xlink="http://www.w3.org/1999/xlink" width="155" height="106.245" viewBox="0 0 155 106.245">
  <defs>
    <clipPath id="clip-path">
      <rect id="Rectangle_53" data-name="Rectangle 53" width="155" height="106.245" fill="none"/>
    </clipPath>
  </defs>
  <g id="Groupe_93" data-name="Groupe 93" clip-path="url(#clip-path)">
    <path id="Tracé_149" data-name="Tracé 149" d="M287.414,64.182a25.059,25.059,0,0,1-.071,2.778A2.083,2.083,0,0,1,285,68.489H255.151q-.012,17.633,0,35.259a2.254,2.254,0,0,1-1.039,2.244,2.058,2.058,0,0,1-2.675-.707Q236.05,87.267,220.655,69.26a8,8,0,0,1-1.648-2.28,32.28,32.28,0,0,1-.067-3.552q0-30.631,0-61.267A2.076,2.076,0,0,1,221.39.027c21.334.012,42.671-.02,64.005.016a1.958,1.958,0,0,1,2,2.094c.032,20.682,0,41.364.016,62.045m-64.527-60.2q0,30.9,0,61.8Q237.024,82.363,251.2,98.915c.02-10.776-.016-21.555.02-32.331a1.978,1.978,0,0,1,2.165-2.031c10.025-.032,20.05-.008,30.078-.012V3.982q-30.282-.012-60.571,0" transform="translate(-132.418 0)" fill="#d8e0ed"/>
    <path id="Tracé_150" data-name="Tracé 150" d="M68.492,63.82a28.051,28.051,0,0,1-.071,3.157,2.1,2.1,0,0,1-2.359,1.517q-14.919-.006-29.833,0c-.012,11.874.016,23.748-.012,35.622a2,2,0,0,1-2.165,2.114c-.873-.055-1.415-.822-1.948-1.415Q16.408,86.371.646,67.973C-.231,67.08.057,65.744.01,64.618q.036-31.23.012-62.46A1.976,1.976,0,0,1,2.053.044C23.386.008,44.724.04,66.058.028a2.054,2.054,0,0,1,2.418,2.118c.032,20.559,0,41.119.016,61.674M3.969,3.98q0,30.9,0,61.812,14.142,16.566,28.3,33.121c.016-10.772-.016-21.547.016-32.319a1.985,1.985,0,0,1,2.138-2.043c10.037-.024,20.073,0,30.11-.008q.006-30.282,0-60.56-30.282-.012-60.568,0" transform="translate(0 -0.001)" fill="#d8e0ed"/>
  </g>
</svg>
