<?xml version="1.0" encoding="utf-8"?>
<!-- Generator: Adobe Illustrator 27.0.0, SVG Export Plug-In . SVG Version: 6.00 Build 0)  -->
<svg version="1.1" id="Calque_1" xmlns="http://www.w3.org/2000/svg" xmlns:xlink="http://www.w3.org/1999/xlink" x="0px" y="0px"
	 viewBox="0 0 512 512" enable-background="new 0 0 512 512" xml:space="preserve">
<g>
	<defs>
		<circle id="SVGID_1_" cx="256" cy="256" r="256"/>
	</defs>
	<clipPath id="SVGID_00000012438902242732373720000001235964916734475648_">
		<use xlink:href="#SVGID_1_"  overflow="visible"/>
	</clipPath>
	<path clip-path="url(#SVGID_00000012438902242732373720000001235964916734475648_)" fill="#DDDB00" d="M416.5,520.4
		c-4.2-0.9,0.4-3.3-2.9-4.8c1.6-2.2,3.5-4.6,1.2-5.6c-1.5,0.7-3.1,3.7-4.7,5.8c-2.9-8.8,6.3-20.5-0.8-25.5c-2.2-1.6-2.4-3.5-5.5-3.8
		c-2.9,4.6,1.6,4.7,3.8,7.3c-2.1,2.9-1.2,3-0.1,4.4c-2.9,4-5.6,8.1-8.5,12.3c-0.8-1.8-0.9-2.6-2.8-2.9c1.9-3.5,0-5.6,3.1-9.6
		c-3.3,0.1-0.4-3.1,1.6-6.2c-1.3-3.1-2.9-6.6-1.7-9.4c-1.4-0.6-2,0-2.3-1.5c-2.1,2.3-4.2,1.1-6.3,4c0.3,2.5,1.1,4.7,0.4,7.4
		c-5.8-7.1-16.8-7.7-20.7-10.3c-6.5-4.3-15.8-7.5-11-17.1c2.9,2.3,6.4,0.2,10,0.4c-0.9-3.5,0.6-10.6-2.9-12.9l-3.6,0.3
		c-1.8,2.8,1.6,2.3-0.6,5c-0.5-1.9-4.3-1.9-4.7-2.2c-4.3-2.7-5.2-8.6-8.8-10.1c1.1-1.6,0-1.6,1.5-2.4c-3.8-4.4-6.7-11-4.6-14.7
		c-4.9-4.4-4.7-11-9.4-13.8c-1.8-1.3-3.8-2.5-5.7-3.8c-4.3,2.6-3.3,6.7-4.1,9.4c-3-2.9-1.4-9.8,0.7-13.8c-2.6,0-1.6-1.7,0.1-4.3
		c-3.4-1.4-1.6-4.4-4.4-6.1c-2.3-1.4-3.7-3.8-6.8-4.1c0,0-7.8-4-9.7-4c-1.9,0-5-6.9-5-6.9s9.5-1.9,5.7-7c-3.8-5-4.4-3.8-4.4-3.8
		l-4.4,4.4l-5.7,1.3h-7.6c0,0-8.8,3.1-12,1.9c-3.1-1.3-5-1.9-7.6-3.8c-2.5-1.9,3.2-6.9,1.3-10.1c-1.9-3.1-13.9-1.9-15.8-2.5
		c-1.9-0.6-7.6,0.6-7.6,0.6l-13.9-12l5-3.2l-5.7-8.8h-9.5l-4.4-4.4l-4.4-6.9l-16.4-0.6l-17-17.1l-4.8-2.3L158,300l0,0
		c-2.6-1.2-5.1-2.4-7.7-3.6c-2.5,0.9-9.8,6.1-12.8,4.7c-1.2-0.6-2.9-2.6-0.8-4.5c-3.4-0.8-2.3-6.7-8.6-6.5c-2.1,6.6-5.7,6.3-8.5,9.5
		c-0.4-1.5-3.4-0.7-3.9-2.7c0.9-1.6,2.1-2.2,3-4.4c-2.3-2.4-4.5-4.7-6.9-7.1c-2.4,3.5-6.5-0.8-9.3,3c-1.7-3-3.3-5.9-5-9
		c-2.5,0.9-4.1,6.5-6.5,8.4c-3.1-4.2-6.8-7.9-6-13.9c-1.8-0.2-4.4-1.2-3.4-4c2.1-1.1,2.6,1.5,3.8-0.8c4.2,7.4,13,4.7,18.5,6.9
		c1.6-1.1,3.7-4.8,3.6-6.6c-4.3,0.8-5.6,0.8-8.6-0.4c-3.5-1.6-5.5-4.8-8.2-6c-1-0.4-2-2.3-3.5-2.2c-2.6,3.9-5.8,1.7-7.2,6
		c-5.6-6.8-9-19.3-16.7-22.3c-2.1-0.8-4.9-3.3-6.5-3.3c-2,1.5-3.2,5.5-5,8.5c-1.8-0.3-8.3-3-5.4-5.4c-16.5-5.1-28.2-13.8-43.5-20.4
		c1-2.7,0-2.5-1.7-3.9c5.1-6.3,2.4-13,8.1-20.2c1.7,1.3,2.8,0,4.2,0c-1.6,4.9,0.5,8.3,2.8,9.1c1.8,0.8,3.6,2.7,2.9-0.6
		c2.2,3.8,8.4,4.9,11.3-0.7c-2.7-0.3-0.4-10.4-6.2-9.4c2.1-2.9,0-3.1-2-3.9c-11.9-4.4-18.4-3.6-27.4-6.8c-3.9-1.3-8.4-1.1-10.6-4.6
		c2.7-2.3-1-1.9,1.1-5.1c-4-1.4-7,2.1-7.4,3.9c-2.2-0.4-2.3-1.8-4.3-2.4c1.1-2.5,2.1-5.1,3.2-7.7c-2.7-3.2-12.1-3.7-14.5-5.4
		c-2.3,4.9-7.8-0.9-11.5-0.1c1.6,13.3,4.7,25.7,21.1,31.1c-2.8,4.7-8.5-0.5-10.8,5.7c-4.4-0.2-1.8-4.6-4.7-5.5
		c-5.4-1.9-11.3,9.7-19.3,3.8c9.4-15.3-0.7-20-3.4-28.6c1.2-2.4,3.4-1.1,4.5-4.1c-4.3-2.5-2.5,1.6-7.5,0c-6.7-1.7-5.1-7.7-11.1-9.7
		c1.3-3.8-0.4-6.1-3.5-7.3c-3-0.8-6.8-3.1-8.9-1.2c1.4-2.6-1.4-0.3-1.7-2c-1,2.7-1.4-1.3-2.5,2.4c-11.5-3.4-23-6.7-34.8-10.1
		c0.2,6,7.6,13.1,4.6,20.5c-4-1.7,0-3.2-4.3-4.3c-2.4-0.7-4.8-1.4-7.2-2c-0.7,3.4-7.3,2.6-8.4,10.1c1,4.2,7.2,5,8,9.2
		c7.3-0.1,14.7-7.4,18-13.6c2,1.1,3.2,0.2,5.2,0.8c7.3,2.1,6.5,11.7,7.4,19.4c6.7,2.7,5.1,7.6,10.9,10.2c-3.4,3.1-6.2,7.3-9.7,9.6
		c-1-2.6,2.1-3.5-1.9-4.4c1.3-1.1,0.4-1,1.3-2.9c-1.6,0.5-6.1-0.6-3.6-4.1c-12-3.8-16.2-10.7-26.6-9.4c2-3.2-17.7-4.1-14.4-8.6
		c-4.2-0.6-2.2-4.8-5.3-6.2c3.4-10.5,5.7-18.2-1.7-22.8c2.8-7.8,7.4-2.8,12.7-2.7c2.1-5.3-7.1-3.9-8.6-6.9c3.7-3.7,1.1-7.9,1.6-11.4
		c-2.7,0.6-5.5-2.1-7.8-1.1c-1.4,2.4,0.2,3.4,1.6,2.8c-2.4,3.2,0.6,3.4,0.5,5.4c-7.9,0.4-8.8-7.2-12.1-10.1
		c-1.7,2.1-4.2,4.7-0.2,5.4c-3,5.2-1.1,5.3-0.5,7.5c-8,2.5-6.7-6.1-10.7-8.2c-2.8,8.7-9.7-4.6-13.1,3.7c-8.5-4.8-9.3,10-16.7,8.2
		l-3-1c-11.2-4.4-7.1-15.4-18.3-20.3c3-2.3-1.1-3.4-3.7-3.8c1.1-4.4-2.8-5.8-4.8-7.9c0.7-2.6,1.5-5.2,2.2-7.8
		c-3.2-0.3-3.2-0.3-3.8-2.5c-1.3,2.7-1.8,3.4-4.6,2.8c-4.8-1-4-9.3-11.5-8.5c-0.7,1.8-1.4,3.7-2.1,5.5c-3.8-1.1-5.5,0-6.4,2.4
		c-2.3-1.8-5.2-0.8-8.1-0.1c0.2,1.5,2.2,1.9,3.8,2.4c-1.4,3.7-2.8,7.5-4.3,11.4c-9.8-1.3-7.3-8.1-15.2-10.1c-1,0.9-1.7,2.7-3,3.1
		l-0.8-2.7c-0.7-0.9-2.1-1.2-4.1-1.9c1.1-2-0.3-2.4,0.8-4.4c-2.7,0.5-4.1-3.8-7.8-0.6c0.1,1.4,1.2,2.1,1.5,3.2c-0.7,2.8-4-0.3-4,3.7
		c-8.1,0.4-9.2-6-14.7-5.7c-1.3-12.5-21-7.9-22-19.8l-3,0l-3.2,2.8l0.5,0.1c-0.9,4.9,12.4,5.3,11.6,13.4c-2.5,0.8-3.1-1.2-5.4-0.3
		c-0.7-5.2-6.8-6.7-12.1-8.8l-3.2,2.3c-12.4,9-26.1,16-40.8,21.5c-15.5,5.2-31.5,7.2-47.4,7.3c-18.9,0.3-37.8-5.2-54.3-14.6
		c-20.2-11.2-33.9-30.8-42.2-51.6l-1.1-2.8v-1.7l-0.1-0.4c-3.6-0.9-7-1.8-9.7-2.7c-0.6,1.7-1.3,3.4-2.2,5l-0.9,1.6l-2,3.6l0.2,1.2
		c4.2-2.1,3.9,3.7,7,1.4c1.1,8.1,13.8,12.8,10.2,26.9l0.3,0.2c5.2,3.7,10.4,7.3,15.5,10.9c9.4,6.7,18.8,13.4,28.1,20.4
		c9.2,6.9,18.5,13.9,27.9,21.1c-6.1,1.4-12.2,2.9-18.5,4.4c12.6,4,24.4,9.1,33,14.4c1.7-3.3,0.2-4.7-1.6-5.4c2-2.7,4.6-3.9,6.1-7.4
		c2.2,2.8,2.1,7.3,7.4,7.8c-2.2,1.8,1.3,1.1,0.3,3.6c10.3,4.2,20.6,8.4,31.2,12.8c7.1,0.3,8.3,1.8,15.1,1.6c1.5-2.1,2.2-5.9,3.7-7.6
		c3.8,2,3.3,5.9,8.8,7.3c0.2-3.4,0.4-2.9,3.1-3.3c4.7,1.2,9.5,2.4,14.4,3.7c0.3,1.4-0.4,0.8-0.2,2.5c5,2.7,13.7,2.8,13.1,9.2
		c7.1-0.3,7.4,4.3,12.6,5.4c6.2,1.1,12.8,3.7,16.6,0.8c-0.1-1.9-5.1-1.9-2.3-4.9c-3.3-1-5.1-3.3-4.8-7c16.7,0.3,28.5,11.1,43.8,14.9
		c-2.2,3.6,1.8,4.6,3.8,3.9c-0.3,1.2-0.5,3.4,1.4,3.9l0.3,0.1c0.5,0.1,4.8-0.4,4.2-2.7c2.3,0.8,4.6,1.6,6.9,2.4
		c1-2.6,2.4-3.6,3.3-6.8c9,4.2,18,8.4,27.2,12.8c0.2,2.3-2.1,5.7-1.6,7.2c1.5-0.1,2.6-0.8,3.4-1.6c1.7-1.7,2.6-4,6.3-3.1
		c5.9,1.4,5.5,4.5,11.4,5.9c1.6,8.1,13.2,10.7,18.9,14.8c1.1-2.8,4.7-6.2,0.9-6.7c0.9-2.1,1.5-4.3,2.8-5.5c2.6,1.8,2.6,3.8,0.2,9.4
		c2.8,0,2,3.2,4.4,2c-2.3,5.3,6.7,3.4,8.7,6.1c-1.9,1.7-0.4,4.2-2.5,7.9c0.9,1.2,3.1-0.2,1.2,3.3c3.8-1.3,7.5,1.5,9.6-2.8
		c1.3,0.3,2.7,0.7,4.1,1.1c0.2,2.2-1.8,5.7-2.7,8.6c6.3,1,7.4-5.8,14.4-2.1c-2.7,3.6,3.7,3.3,0,6.1c2.3,0.3,3.6,1.2,2.4,3.7
		c2.4-0.8,2.4,4.5,7.1,5.9c5.5,1.6,6.2-0.6,11.5,0.2c-5.4,7.8,1.3,10.5,7.8,12.4c5.1,1.5,10.1,3.1,15.3,4.7c0.8-2,1.7-4,2.6-6.1
		c-2.7-0.1-0.6-3.4-3.8-4.3c-0.9,3.5-0.8,2.1-3.3,1.3c-3.1-1-4-3.1-7.9-5.5c2.2-6.9,12.1,0.3,13.1-4.7c1.5,1.9,2.2-0.6,4.7,0.8
		c-1.4,1.2-0.3,1.3-1.4,3.3c2,0.6,3.9,1.7,5.5,1.1c1.4-3,0.9-3.6,2.5-5.6c4.2,6.3,17.3,10.9,19.5,15.8c2.3,1,4.6,2,6.9,3.2
		c-0.6,1.8,0.3,1.5-1,2.6c4.4,0.5,2.5,4.8,5.8,5.8c-4.8,5.1-3.9,12.9,2,12.5c1.2-4.5-1.1-7.1,1-12.3c2.5,0.7,2.4,0.4,4.5,1.5
		c-2.3,4.8-2.9,4.2-4.1,9c4.8,1.1,6.4,6.7,10.5,5.1c-1.2,2.4,2.3,1.6,4.6,3.2c1.4-2.9,2.7-5.8,4.1-8.8c-2.7,0.1,0.2-6.8-1.1-9
		c4.1,0.5,11.1,4.7,11.3,10.2c5.3,1.9,7.1,9.9,9.8,15.9h0.2l3.3,3.4l7.6,2.5l4.4,5.7l7.6,1.9v-6.3l0.6-3.2l5.7,0.6
		c5.7,0.6,4.4-1.3,8.2-5.1c0,0,0.6,8.8-2.5,7.6c-3.1-1.3-6.3,2.5-6.3,2.5v3.8c0,0,2.5,3.8,4.4,4.4c1.9,0.6,9.5,3.2,18.3,3.2
		l17.7,2.5l3.8,6.3l8.2,5.1H57l3.8,12.6l4.4,6.3l2-0.7l13.7-5l24.4,19.4c1.8,2.3,4.3,4.2,2.9,8c5-0.8,4.5,9,10.2,11.4
		c2.9-5.5,11.2,3.3,11-0.8l2-0.1l2.5,3.2l6.3,1.9l3.1-1.3c3.2-1.3,10.1,0,10.1,0l5,19.6l8.3,4.7c5.2,3.5,11.2,6.9,9.6,11.7
		c2.8,3.1,10.7,6.3,9.7,12.6c4.1,3.7,17.1,10.7,15.8,15.2c2.8,1.5,5.5,3,8.3,4.6c5.3,2.8,7.9,2.3,12.8,4.8c-2.3,1.5,0,3.3,1.9,3.3
		c-1.7,2.2-0.6,3.4,0.6,4.2c2.7-2.3-0.9-2.6,0.5-5c2-3.5,10.3-2.6,11.6-2c-1.7,9.3,10.4,13.3,8.3,22.9c1.4,0.8,2.9,1.7,4.4,2.6
		c2.5-3.8,3.5-0.4,5.9-4.5c-2-2.5,0.3-5,2.7-8.6c3.1,2.7,5.4,5.4,4.5,9.7c2.6-0.3,3.6,3,2.3,5.7c2.2-0.7,4.4,3.4,5.8,4.3
		c3,1.7,7,5.2,10.4,0.4c3.4,5.9,12.6,4.7,12.1,12.7c3.6,0.4,4.8,3.7,9.4,5.9c-1.7,2.7-2.5,2.8-3.2,5c3.3,1.2,15.7,10.2,18.2,11.9
		c9.6-2.6,17.2-4.4,32-2.2c4,0.5,3.2-15.4,7.3-14.6c4.4,0.8,9.1,6.4,13.4,7.3c3.3,0.6,7.5-2.5,10.6-1.8c29.2,6,49.6,24.3,12.6-2.6
		c-1.7-1.1,24.8,0.4,22.5-1.4C414.5,522.6,414,522.4,416.5,520.4 M309.7,526.6c1.9,1.4,2.5-3.8,1.9-6.2l-1.6-0.9l1.6,0.9
		c3.3,2,7.5,5.5,10.1,4.9C313.5,532.8,305.4,535,309.7,526.6 M346.7,459.3c-6.5-4.3-11.1-8-9-15.3c1.4-0.4,2.9,0.8,4.4,1.7
		C338.8,452.9,349.1,452.7,346.7,459.3"/>
	<path clip-path="url(#SVGID_00000012438902242732373720000001235964916734475648_)" fill="#009EE2" d="M503.5,412.4l7.6,1.3
		l-8.2-6.9h1.9c1.9,0,9.5,1.9,9.5,1.9L513,403h-5h-1.9c-1.9,0-3.8-1.3-3.8-1.3l-6.3-8.8l-6.3-5c0,0-12.6,2.5-14.5,2.5
		s-13.3-9.5-13.3-9.5l-3.4-12.6c0.4-1.6,0.8-3.2,1.2-4.8c-2.3-0.2-4.3-1.3-3.8-2.6c-4.6-0.2-7.2-2.2-9.6-4.9c4.1-1.1,7-2.3,9.4-0.5
		c4.6-1.2,1-2.3,5.4-3.5l-2.3-3.6c-8.7,0-12.3-6.4-19.2-8.5l-4.7-3.8c0.1-2,0.8-4.4,3-5c2.7-0.7,2.7,2,5.4,0.5
		c-0.8-1.1-1.8-2.1-4.3-1.1c0.1-1.4-1.8-3.3-3.5-1.8l-2.5-5.8l-2.7-0.4l0.2,3.1l-1.7,1.7l-0.4-0.1c-4.4-2.4-8.2-6.2-8.2-6.2l10,1.4
		l-0.1-0.6c-0.4-2.4-1.1-4.6-1.1-4.6l-7.6-3.8l-4.4-1.3l-7.6,0.6l-1.3-6.9c0,0,6.3,3.2,8.2,3.2c1.9,0,5-0.6,6.9-4.4
		c1.9-3.8-3.8-5-3.8-5l-17.7-4.4l-6.4-2.8l0.9-0.7l0,0l-3-0.2l-2.9-1.3l-0.6-0.3l-6.3-5.7l-8.8-3.5c-3.4-2.5-6.9-5.2-10.4-8
		c-6-4.9-11.5-10.2-14-15.7c6.4,0.8-5.5-5.6,0.5-7.7c-3.2-4-13.7-3.6-13.5-7.1c-6.5,1.5-8.9-4.2-15.3-2.9c-1.1-5.5,6.2-10,4.8-15.5
		c-2.1,0.4-4.8,0.6-5.6,1.6c-1.3-1.8-8.4-2.8-7.1-5.5c-4.5-0.6-5.7-3.4-10.3-4.1c2-1.7,4.9-1.7,6.8-0.4c2.3-0.6,1.6-1.3,3.8-1.9
		c1.5-3.7-7.6-9.5-13.3-15.3c-9-8.8-30.1-12-39.9-26.3c-4,1.6,2.2,3.7-1.2,5.2c-1.7-0.9-3-2.3-4.1-3.6c-2.6-3-4.4-6.3-10.1-5
		c-0.1-3.6-7.8-3.5-10.2-5.5c-1.3-1.1-2.6-1.9,0.6-3c-1.7-2.3-0.4-3.8-3.2-6.4c-5.4-4.6-23.2-1.8-28.9-6.6
		c-5.9,0.9-12.8-2.9-14.8-5.5c2.9,0.4,9.3-2.7,10.1-0.9c2.7-1.4,5.4-2.9,8.1-4.2c-2.5-1.3-2.8-3.6-5-2.5c0.2-3-6.3-3-9.2-5.9
		c-4.7,1.7-3.9,2-8.1,4.4c-1.9-1.1-1.7-1.1-3.3-2.6c4.7-2.4,8.3-1.4,12.7-3c-1.8-3.9-10.5-3-14.1,1c-2.3-1.9-6.2,0.2-8.3-2.5
		c-0.7,1-0.7,0.4-2.4,1.1c-2-1.2-4-2.5-6-3.7c-6-0.4-16-7.5-24.4-8.6c1.5-1.5,2.3-1.3,4.9-2.9c0.1-1.1-1.9-2-3.4-3.1
		c-1.7,1.1-2.3,0.6-2.9,1.6c-2.7-1.3-0.3-2.3-2.9-2.7c4.7-1.9-7-6.2-0.7-9.3c4.2,1.9,6.9,1.9,9.1,3.6c1.9,1.4,3.4,1,0.1,2.4
		c2.3,1.8,4.9-0.4,6.1,1.4c1.8-1,3.6-2.1,5.4-3.1c-3.8-2.9-7.7-5.8-11.5-8.5c-4.7-3.6-10.7-7-16.4-1.7c-2.8-2.6-1.8-3.7-4-5.8
		l-1.5-1.3c-3.7-2.6-9.2-1-9.6-2.8c-2.1,1.4-3.5,0.9-5-0.4c-1.1,2.9-3.8-0.9-6.4,1.6c-7.1-3.1-0.6-5.7-4.7-9.2
		c-2.6,1.4-5.1,3.7-7.5,4.1l-3.1-2.1c3.4-2.5-1.3-3.8-1.8-6.5c-2.7,2.2-2.4,0.5-4,0.3c-2.7,2.3-6.1,2.2-6.8,3.8
		c-3.7-0.3-6.4-6.1-10.6-3.1c0-1.8-2.8-0.3-4.2-1.9c-4.4,3.1-6.5,3.7-9.6,2.9c0.4-1.1,2.4-2.2,4.1-3.4c2.4,2.1,4-1.1,6.4-2.7
		c-7.1-2-15.7-7.7-24.8-5.9c-4.5-2.9-7.4-1.5-12-4.4c-2.9-1.7-1.2-3-0.4-4.7l-0.2-2.4c-1.8,0.3-3.9,2.7-6.3,3.4
		C6,48.1-3.2,44.7-12.5,41.4c2.6-1.7,2.8-2.8,4.7-4.4c-2.2-0.9-4.3-1.8-6.5-2.7c2.5-0.6,0.6-3.1,0.1-3.4c-1.8-1.1-4,0-5,0.6
		c-0.6-1.3-4-3-6.1-0.5c-3.6-1.8-7.5-3.3-11.7-4.6c-10.7-3.5-22.1-5.9-30-12c3.2-1.7,6.6-1.8,9.7-0.5c1.1-2.7,4.4-0.2,6.2-0.9
		c0.3-3.1-6.4-5.5-11.6-8.2L-64,4.3c-1.2,1.3-2.4,2.5-3.7,3.7c-7.2,7.1-15.8,12.9-25,17.1c-8.9,4.3-18.5,7.4-28.6,9.2
		c-15.9,2.4-32.3,2-47.4-2.7c1.4,1.2-0.6,2.3,2.4,3.6l-3.1,3c-5.1-1.3-9.9,0.1-14.9-0.6c3.4-3.7-1.8-3.7,1.3-7.4
		c1.7,2,5.4-1.5,9,1.5l1.8-1.2l-0.1-0.1c-4.1-1.4-8.1-2.9-12.2-4.3c0.4-3.8,0.7-7.6,1.1-11.5c-3.1,6.1-7,11.7-11.6,16.6l-0.4,0.5
		c0.1,3.8,4.2,7.4,9.8,6.5c-2.5,1.8,0.6,2.4,2.3,3c3.8,1.7,6-0.6,9.7,1.8c8.8-3.9,18.4,5.1,27,1.3c0.7,1.5,2.6,0.9,3.6,2.3
		c-6.5,4.1-15.4-1.7-19.1,1c-1.5-0.8-5.1-3.8-7.7-0.3c1.1,1.9,8,2.2,9.1,4.2c10.8-5.2,19.2,6.1,31,0.9c3.1,2.6,9.6,0.3,14.1,4.3
		c-3.5,1.8,1.2,2-0.8,3.6c-1.3,0.3-2.5,0.1-3.8,0.7c-0.5,3.2,4.1,1.9,5.3,3.4c1.1-1.4,2.3-0.9,3.4-2.3c3.1,1.1,4,1.8,7.2,0.4
		l-0.9,2.7c6.3,2.9,11-1.3,17.9,3.1c-2.7,2.4-5.3,4.6-7.9,6.9c-1.4-0.6-2.9-1.4-4.3-0.8c1,1.6,1.8,3.5,4.7,3.9
		c-1.8,1.6-1.8,2.8,1.3,4.2c-1.3,1.2-2.6,2.2-3.8,3.4c3.3,4.1,10.5,0.1,14,2.1c2,1.1,1.7,1.7-0.1,3.4c2.3-0.6,2.2-0.6,4.3,1
		c2-1.5,4-2.9,6.1-4.3c2.4,0.1,5,1,7.6,0.3l2.1-1c2,1.1,5,2.8,5.6,0.3c10.4,3.9,18.6-2.5,28.5,1.7l2.4,1.2c5.4,3.3-8.1,9.1,0.6,11.8
		c-6.2,4.9,9.8,3.6,2.9,8.4c3.8,1.4,11.4-2.5,12.8,2.6c-2.4,0.5-3.3-0.6-6.9,3c-2.7-1.9-3.9,0.3-5,2c4.3,0.8,12-1.5,15.1,2.8
		c-1.9,0.8-3.3-0.7-5.3,1.6c-0.1-0.9-1.7-1.5-3.4,0.2c0.1,1.5,3.9,2.1,4.6,3.7c3.1-1.4,8.3-1.5,10.1-4.8c3.6-0.3,6.3,5.2,10.5,2.3
		c-2.5-2.9-9.3-3.7-3.2-7.8c7.8,2.4,14.3-1.3,23-6.6c2.8,1.2,6-1.2,8.5,0.9c3-3.3,12.7,7.6,14.8,5.5c3.3,6.3,11.8,6.8,20.5,12.6
		c2.5-2.4,5.4-0.1,5.6,0.9c1.6-1,1.7-0.4,2.3-1.5c2.6,2,2.3,0,5.3-0.1c-0.9,2.7-4,5.5-5.9,8.3c-4.9-2.7-9.3-0.3-14.6-3.5
		c-8.1,1.8-17.1,5-22.2,1.5c-1.4-0.9-1-1.9-2.8-2.7c4.7-3.7,8.8-10.2,5.7-14.4c-4.5,0.8-8.2-2.4-12.6-1.6c-6.9,3-3.2,6.5-6.2,7.9
		c1.7,1.2,3.3,2.3,5.1,3.4c2.9,2,2.6-0.7,6,1c-6,4-15.9,2.1-21.8,4c8.3,5.5,16.2,10.9,24.1,16.3c-3.2,1.6,0.8,0.7-1.4,2.1
		c1.8-0.2,0.7,1.9,2.7,0.4c-1,1.8,2.5,3.3,4.5,4.7c2.4,1.4,5.2,1.7,8.4-0.1c4.1,2.9,9.5,0.2,13.6,3.6l0.9,0.8
		c1.5,1.7-1.7,1.9,1.8,3.5c2.6-1.4,0.5-2.4,2.4-3.8c9.6-0.7,17.8,4.1,29.8-5.4c8.8,3.3-0.9,9.6,2.8,12.5c1.9,1.5,5.5-1.1,7.1,1.5
		c-5.5,2.9,1.6,5.1-2.3,7.8c-10.5-8.6-24-7.3-37.8-4.7c0.6,2.3,8,4,3.9,6.7c2.5,1,5.9,6.3,10,7c2.2-1.2,4.3-2.5,6.5-3.7
		c1.3,1,2.7,0.7,3.7,1.9c-1.7,0.8-4.1,3.4-1.6,5.4c2.6-2,3.3,0.2,4.8-1.9c4.2,0.5,5.3,3.2,7.8,5.3c5.7,4.7,6.6,8.7,14,14.9
		c1.3,1,2.1,2.2,4.5,0.4c0.5,3.6,10,0.1,11,1.8c4.9-2.8,2.2-6.3-2.1-6.9c3.5-0.2,1-0.9-0.2-1.9c-1.5-1.3-5.4-1.9-9.9,0.1
		c-0.4-0.8,0.7-1.7-1.1-2.4c5.6-4.9,13.1-4.7,18.2-9.1c1.9,0.7,2,1.4,4.3,0.3c10.9,8.1,22.6,13.9,31.9,23.4c1.8-2.2,6,1.3,6.7,2.6
		c-2.6,1.5-6.6,2.9-7.6,4.4c0.4,0.9,3.5,2.4,4.8,3.5c2.9,2.7,9.2,3.9,15.5,4.9c3.8,0.8,7.6,1.5,10.7,2.6c-4.2,1.3-1.4,3.1-5,5.2l3,2
		c1.7,1.6,5.4,2.5,7.5,4.6c1.8,1.7,2.1,2.5,1.8,5.4c1.9-0.1,5.5-1.8,6.3-3c-3.1-3.3-1.8-9.2-10.2-11.1c2.1-1.1-0.6-1,0.1-2.6
		c2.8-0.9,4.1,0.7,4.7,1.8c6.1-1.1,10.6,0.7,15.5,2.3c-1.7,1.8-7.1,3.4-7.7,5c3.5,0.9,6.8,1.6,10.1,2.4c-3.5,2.2,1.5,4.4-1.7,6.3
		c2.8,1.3,5.5,2.6,8.3,3.9c2.3-0.8,2.7-1.6,4.2-2.4c2.2,0.2,1.8,2.2,3.3,2.4c-3,2-2.2,4.3-8.8,6.2c0.5,4.2,6.5,3,7.7,5.1
		c1.5-1.2,3.5-0.6,4.5,0l2.2-0.2c0,0,3.3,13.3,3.9,17c0.6,3.8,1.3,3.8,10.1,5.9l-1.9,5.6c1.7,1.9,3.4,3.8,5,5.7l0.1,0.7l-2.5,1
		l2.8,2.7l0.5,5.4l1.8,2.1l7.5,4.3l3.2,3.8l1.3,4.4c0,0,3.8,3.8,9.5,6.9c5.7,3.2,3.1,1.3,5,1.3c1.9,0,3.8,1.9,3.8,1.9
		s-0.7,3.1-2.5,3.1c-1.9,0-5.7,4.4-5.7,4.4l3.8,1.9l4.4-2.5l7.6-1.9l4.4,5.1l10.1,8.8l1.9-0.6c1.9-0.6,6.6-0.3,6.6-0.3
		c-1.2,5.3,6.6,12.2,10.2,18.1c0.3,0.4,0.9,1.9,1.6,3.7c0.4,2.4-0.6,4.4-4.5,5.8c1.9,1.9,5.5,1.5,7.7,2.9c-1.8,0.5-3.5,1-5.3,1.5
		c-0.2,2,2.1,3.2,3.1,4.9l3.2,1.7l1.4,6.4l3.8,1.3L373,396l10.1,22.1l10.1,3.8l6.5,3l2.2,5.1c-2.6,0.6-5.8,0.8-6.9,1.6
		c0.2,1.8,3.2,1.1,5.8,0.6c0.5,2.5,4.1,0.1,3.7,3.1c2.6-1.1,2.6-0.8,3.5,1.1c0.9,2-2,2.4-1.3,3.9c0.9,2.1,5.2,1.9,7.1,2.1
		c2,1.7-2.9,1.5-2.6,2.8c4.1,0.9,5.7,2.3,11.4,1c3.5,2.4,4.8,3.4,8.2,4.4c-1.9,1.4-6.4,1.6-11,3c2.3,2.5,10.6-0.4,14.9-1.1
		c2.8,0.8,7-1.4,7.3-2.7c12.9-1.8,27.5-1.8,40.5-6.7l-0.2,1.2c1.7-3,10.1-2.2,15.4-3.5c1.4-2.4,1.3-5.6,6.4-6.8
		c-4.4-1.5,1.5-2.4,0.2-4.7c2.7-0.9,3.3,0.4,5.5,0.2c0.5-3.4-2.1-5.2,0.5-8.3l4.6-1.8l-2.6-1.6L503.5,412.4z M-43,39.5l-2.3-1.2
		c-4,2.3-10.4-4.8-15.6-3.4c7.5-5.5,14.2-4.7,21.3-2.6c2.8,0.8,5.5,1.8,8.5,2.6C-33.5,38.8-38.8,40.8-43,39.5 M18.8,101.2
		c-10,7.3-22-1.6-30.3-1.3c2.2-2,4.4-4.2,6.6-6.2c4.6,0.1,10.8,3.3,16.4,1.4c-0.9-2.2-6.9-3.4-6.4-6.2c3.6,0.6,7.1,2.8,11.1,0.3
		l2.7,1.7C16.6,95.9,26.4,95.7,18.8,101.2 M270.2,283.3L270.2,283.3l-1.1,3.2L270.2,283.3z"/>
	<path clip-path="url(#SVGID_00000012438902242732373720000001235964916734475648_)" fill="#E73088" d="M625.3,307.7l-1.3-3.2
		c2-3.2,1.2-5,1.3-8.1c-1.5-0.7-2.6,3.2-4.1,1.1c0.4-1.6,1.8-5-0.5-6.5c-1.5-0.9-2.9,1.1-4.9-0.2c-1.8-1.2-2.3-1.4-0.2-3.2
		c-3.7-0.6,0.2-2.8-2.6-4c1.2-1.9,2.9-4.1,0.8-4.9c-1.3,0.6-2.6,3.2-3.8,5.1c-2.8-7.6-7.1-10.8-13.3-14.8c-1.9-1.3-2.2-2.9-4.7-3.1
		c-2.3,4.1,1.5,4,3.4,6.2c-1.7,2.5-0.9,2.7,0,3.7c-2.3,3.6-4.5,7.2-6.8,11c-0.7-1.5-0.9-2.3-2.5-2.5c1.5-3.1-0.2-4.9,2.4-8.5
		c-2.8,0.3-0.5-2.6,1.1-5.3c-1.3-2.7-2.7-5.6-1.8-8.1c-1.2-0.4-1.7,0.1-1.9-1.3c-1.7,2.1-3.5,1.2-5.2,3.6c0.4,2.2,1.1,4.1,0.6,6.4
		c-5.1-5.9-14.5-6.2-17.9-8.3c-5.5-3.6-13.5-6-9.7-14.5c2.5,1.9,5.3,0,8.4,0c-0.9-2.8,0.3-8.9-2.8-10.9l-3.1,0.3
		c-1.4,2.4,1.4,2-0.3,4.3c-0.5-1.6-3.7-1.6-3.9-1.7c-3.7-2.4-4.7-7.4-7.7-8.6c0.9-1.5,0.1-1.4,1.2-2.1c-3.3-3.7-5.9-9.3-4.1-12.6
		c-4.2-3.7-4.3-9.3-8.1-11.7c-1.6-1.1-3.2-2.1-4.8-3.2c-3.5,2.3-2.6,5.8-3.2,8.3c-2.6-2.5-1.3-8.5,0.3-11.9c-2,0-1.4-1.5,0-3.7
		c-2.8-1.2-1.4-3.8-3.7-5.2c-2-1.2-3.2-3.3-5.7-3.4c-0.8,1.4-1.6,2.8-2.5,4.3c-1.4-2-0.6-5.1-2.8-6.9c-9.5,13.6-28.4-18.9-39.4-5.8
		c-2-1.4-3.7-5.5-1.4-6.1c-3.7-6.4-7.4-12.7-11.4-19.1c-6.9-5.4-11.8-4.3-16.8,2.5c1.4,1.2,0.7,3.2-0.5,5.7c2.6,0.4,1.9,4.6-0.4,8.5
		c-1.8-4.4-4.6-12.4-9-16.1c3.9-5.4,10.3-1.6,14.2-8.3c3.9-7,0.8-9.3-1.8-13.5c-1.4,2-2.5,2.6-3.4,1.2c-1,1.5-1.9,3.2-2.9,4.9
		c1.9,2.5,3.2,0.7,5.9,1.1c-2.3,2.5,1.5,2.5-0.5,4.8l-2.9-1.6c-1.3,0.9-0.5,1-2.1,2.5c-4.9-4.9-9.9-9.7-15-14.8
		c4.7-5.9,8.9,0.3,13.5,1c0.2-2.2,0-3.1-2-4.3c-3.1-1.6-6.2-3.3-9.3-5.1c-2,3.4-7.7-0.8-10.2-2.5l-1.4,2.3
		c-10.8-5.8-21.6-11.5-32.8-17.3c-2,0.8-7.9,5.1-10.4,3.8c-0.9-0.5-2.3-2.3-0.6-3.8c-2.7-0.8-1.7-5.8-6.8-5.8
		c-1.9,5.6-4.8,5.4-7.1,8c-0.3-1.2-2.7-0.7-3.1-2.4c0.8-1.3,1.8-1.8,2.6-3.7c-1.7-2.1-3.5-4.1-5.3-6.2c-2.1,2.9-5.1-0.9-7.6,2.3
		c-1.3-2.6-2.5-5.2-3.8-7.8c-2.1,0.7-3.4,5.4-5.4,7.1c-2.4-3.6-5.2-7-4.4-12.1c-1.4-0.4-3.5-1.1-2.6-3.5c1.8-0.8,2,1.4,3.1-0.6
		c3.2,6.5,10.3,4.4,14.6,6.5c1.4-0.9,3.1-4.1,3.1-5.7c-3.5,0.6-4.4,0.6-6.9-0.6c-2.7-1.4-4.2-4.3-6.3-5.4c-0.8-0.3-1.4-2.1-2.8-1.9
		c-2.2,3.2-4.7,1.3-6,5c-4.1-6-6.4-16.8-12.4-19.7c-1.7-0.8-3.8-3.1-5-3.1c-1.7,1.2-2.8,4.7-4.4,7.1c-1.5-0.4-6.4-2.9-4-4.8
		c-12.9-5-21.8-12.9-33.5-19.3c1-2.2,0.1-2.1-1.2-3.3c4.3-5.3,2.6-11.2,7.4-17.1c1.3,1.2,2.2,0.1,3.2,0.2c-1.5,4.1,0.1,7.1,1.9,7.9
		c1.5,0.7,2.7,2.5,2.4-0.4c1.6,3.3,6.4,4.5,8.8-0.1c-2.1-0.4,0.3-9-4.4-8.4c1.7-2.4,0.1-2.7-1.4-3.4c-9.1-4.3-14.2-3.8-21.1-7
		c-3-1.2-6.5-1.3-8.1-4.3c1.5-1.3,0.7-1.7,0.5-2.5l-3.4,0.6v-1.6l-0.5-0.1l-1.5,2.2c-1.7-0.3-1.7-1.6-3-2.2l0.2-0.5
		c-2.5-0.4-5.1-0.7-7.7-1c-2.9-0.3-5.8-0.7-8.7-0.9c1.4,7.5,4.9,13.9,13.7,17.6c-2.4,4-6.6-0.7-8.7,4.4c-3.5-0.4-1.2-4-3.4-4.9
		c-4.2-1.9-9.5,7.8-15.4,2.3c6.4-9.7,3.4-14.6,1-19.8c-7.1,0.1-14.1,0.9-21.1,1.9c-3.4,0.6-6.8,1.1-10.3,1.6c1,2,1.5,4,4,5.5
		c-2.9,2.4-5.3,5.9-8.2,7.6c-0.6-2.2,1.8-2.9-1.4-4c1.2-0.9,0.5-0.8,1.2-2.4c-1.2,0.3-4.6-0.9-2.4-3.7c-8.1-3.7-11.3-9.1-17.9-9.8
		c0.1,3,0.2,5.9,0.3,8.9c-6.3-0.6-12.5-1.3-19-1.9c-5.7-0.5-11.3-0.8-17-0.6c-2.6,0.2-5.2,0.5-7.8,0.9c-3.1,0.4-6.2,1-9.3,1.6
		c-6.1,1.3-12.3,2.6-18.6,3.9c-0.1-1.4-0.2-2.7-0.3-4c-1.9,0.1-3.9,0.3-5.8,0.5c2.1,1.6,2.5,3.5,6,4.8c0.6,7.2,9.3,10.4,13.4,14.3
		c1.1-2.4,4.3-5,1.3-5.7c0.9-1.8,1.6-3.7,2.7-4.5c1.8,1.8,1.7,3.6-0.7,8.1c2.2,0.1,1.3,2.9,3.2,2c-2.2,4.4,5,3.5,6.4,6
		c-1.6,1.3-0.7,3.6-2.7,6.6c0.6,1.1,2.5,0.1,0.6,2.9c3.1-0.9,5.7,1.9,7.9-1.7l3,1.1c0,2-1.9,4.8-2.9,7.3c4.9,1.4,6.4-4.4,11.5-0.7
		c-2.3,3,2.7,3.2-0.5,5.3c1.9,0.6,2.7,1.3,1.7,3.4c2-0.5,1.5,4.1,5.1,5.6c4.2,1.8,5,0,9.2,1c-4.9,6.2,0.2,9.2,5.1,11.2
		c3.8,1.7,7.7,3.4,11.8,5.1c0.9-1.7,1.7-3.3,2.6-5.1c-2.3-0.2-0.2-3-2.7-4c-1,3-0.7,1.7-2.8,0.9c-2.3-1-2.9-2.9-5.8-5.3
		c2.2-5.8,9.5,1,10.7-3.1c1,1.7,1.7-0.4,3.7,1.1c-1.1,0.8-0.4,1.1-1.4,2.7c1.5,0.6,3,1.7,4.3,1.3c1.4-2.6,0.9-3.1,2.4-4.7
		c2.9,5.8,13,10.5,14.3,14.9c1.8,1.1,3.6,2.1,5.4,3.1c-0.5,1.5,0.1,1.4-0.9,2.2c3.4,0.6,1.6,4.2,4.2,5.4c-4.1,4-4,10.8,0.8,10.8
		c1.3-3.8-0.5-6.2,1.7-10.4c1.9,0.6,1.9,0.5,3.4,1.5c-2.2,3.9-2.6,3.4-3.8,7.5c3.8,1.1,4.6,6.1,8.1,5c-1.2,2.1,1.7,1.5,3.5,3
		c1.3-2.4,2.5-4.9,3.8-7.4c-2.1,0,0.7-5.8-0.3-7.8c3.4,0.6,8.7,4.5,8.6,9.3c6.2,2.9,5,17.3,11,20.1c3.3,1.5,4.8,0,7.8,0.7
		c0.9-2.8,1.9-2,3.4-1.4c2.7,1.4,3.2,7.3,7.4,6.5c-1.4,6.7,7,5,11.3,9c-1.6,2.9-4.5-1.3-6,2.1c17.4,4.3,22.3,20.1,32.9,25.4
		c7,3.5,13.9,9.7,18.4,7.8c0.7-1.7,1.6-1.4,2.3-3.2c-1.6-1.3-1.6-3.6,0.3-5.4c1,3.5,4.3,4.1,5.1,7.5c3-1.4,4.2,4.1,6.5,4.9
		c-1.4,0.8-1.6,2.9-2,4.6c6.4,0.4,11.8-6,18.3-5.8c-1.6,5.3,5.2,6.5,3.3,11.9c4.2-0.5,3.4,7.9,8,10.1c2.7-4.9,9.9,4.1,9.2-1
		c12.7,3.1,23.6,15.5,31.7,23l-1.3,2.3c4.2,3.1,9.2,6.2,7.8,10.2c2.3,2.7,8.9,5.6,7.9,11.1c3.5,3.2,14.2,9.2,13.2,13.2
		c2.3,1.4,4.5,2.6,6.9,4c4.4,2.6,6.7,2.1,10.7,4.2c-1.9,1.3,0,2.9,1.6,2.9c-1.5,1.9-0.6,2.9,0.5,3.6c2.2-2-0.8-2.3,0.3-4.4
		c1.8-2.9,8.7-2.1,9.9-1.7c-0.3,1.9,0,3.5,0.6,4.9l-0.1,0l0.9,1.6l1.8,2.8l0.2,0.2c1.6,2.2,4.8,8,4.8,8l8.2,8.2l2.5-4.4
		c0,0,1.9-5.8,5.1-5.6l0.7,0.2c3,1.3,3.7,9.8,3.7,9.8l-2.5,11.4c3.8,1.9,1.9-4.4,3.8,1.9c1.9,6.3,6.3,6.3,6.3,6.3l2.5-6.9
		c0,0,7.5-3.8,6.9-1.3c-0.6,2.5-4.4,8.2-4.4,8.2l6.3,4.4l-4.4,4.4l3.8,4.2l-0.5,0.9l0.4-0.2l-0.5,2.1l5.7,3.2c0,0,4.4,1.9,9.5,6.9
		c5,5,0,3.2,5,5c5,1.9,11.4,2.5,11.4,2.5s2.5-1.9,4.4,2.5l1.9,4.4l2.5,3.8l5.1,8.8l12.6,3.8v-5l8.1,3.8l1.3,0.6l3.8-3.8
		c0,0,1.9-1.3,1.9-3.1c0-1.9-1.3-6.3-1.3-6.3l1.3-3.8l7.6,2.5l-0.6,5l3.8-9.5h6.3l-0.7-15.8c0,0,1.9,1.9,3.8,2.5
		c1.9,0.6,5.7,2.5,5.7,2.5l7-1.3l8.8-8.2l12.6,1.3l5.7-8.2L625.3,307.7z M266.7,127.4c1.2-2.2,3.2,0.1,4.6-0.6
		c1.6-2.3-1.7-2.3,0.5-4.9c5.1,2.5,10.2,4.9,15.4,7.5c1.1-0.1,5.6,1.7,5.8,4.3C283.8,128.9,272.8,130.9,266.7,127.4"/>
</g>
</svg>
